<svg id="Layer_1" data-name="Layer 1" xmlns="http://www.w3.org/2000/svg" viewBox="0 0 99.3 22.04"><defs><style>.cls-1{fill:#0f2d4f;}</style></defs><title>Wgu-Logo2</title><path class="cls-1" d="M77.2,19.6a2.6,2.6,0,0,1,0-5.2,3.59,3.59,0,0,1,1.1.2,1.27,1.27,0,0,0-.6-.1,1.8,1.8,0,1,0,1.8,1.8,1.7,1.7,0,0,0-.1-.7,2.84,2.84,0,0,1,.4,1.3,2.61,2.61,0,0,1-2.6,2.7m15-3.1v-.4a3,3,0,0,1,.2,1,2.6,2.6,0,1,1-2.6-2.6,3.55,3.55,0,0,1,1,.2h-.4a1.8,1.8,0,1,0,1.8,1.8M96,12.1l-1.6,1.3h0a5.94,5.94,0,0,1,1.3,3.7,5.8,5.8,0,0,1-5.8,5.8,6,6,0,0,1-4-1.6V18.9a4.2,4.2,0,0,0,8-1.8,4.31,4.31,0,0,0-2.5-3.9h.1a7,7,0,0,0,1.4-.8l6.7-5.5a15.09,15.09,0,0,0-5.7-.4,24.06,24.06,0,0,0-4.7,1.3,13.36,13.36,0,0,0-5.8-1.2,12.07,12.07,0,0,0-5.8,1.2,24.06,24.06,0,0,0-4.7-1.3,13.43,13.43,0,0,0-5.7.4l6.7,5.5a7,7,0,0,0,1.4.8h.1A4.39,4.39,0,0,0,73,17.1a4.2,4.2,0,0,0,7.9,2V15h0v-.1h0a1.3,1.3,0,1,1,2.6,0h0v9.8L81,22.4l-.5-.5c-.8.8-1.7.9-3.2.9A5.8,5.8,0,0,1,71.5,17a4.76,4.76,0,0,1,1.1-3.5L71,12.2A7,7,0,0,0,69.4,17a7.92,7.92,0,0,0,7.9,7.9,7.49,7.49,0,0,0,2.1-.2c1.1,1,4.2,3.7,4.2,3.7l4.3-3.9a6.93,6.93,0,0,0,2,.3,7.92,7.92,0,0,0,7.9-7.9A8.16,8.16,0,0,0,96,12.1h0" transform="translate(-0.3 -6.36)"/><path class="cls-1" d="M2.2,10.4a1,1,0,0,0-.9-.7H.3V6.9h9V9.8H7.4L9.7,20.1h.1L13,6.9h3.8L20,20.1h.1l2-8.3c.3-1.3.1-2-1-2h-.8V6.9h8V9.8h-.8a1.48,1.48,0,0,0-1.1.8l-4,15.6H17L14.3,15.1h-.1L11.5,26.2H6.1Z" transform="translate(-0.3 -6.36)"/><path class="cls-1" d="M27.4,16.7c0-6.5,3.7-10,9.6-10a23.29,23.29,0,0,1,3.2.2h3.7v6.4H40.5L40,10.5a7,7,0,0,0-2.4-.4c-2.7,0-4.6,1.8-4.6,6.4,0,4.4,1.3,6.8,4.1,6.8a8.75,8.75,0,0,0,2-.2V19.7H37.4V16.9h8.1v2.9H45a1,1,0,0,0-.8.8v5.8H41.5a.89.89,0,0,0-.8-.6,8.86,8.86,0,0,1-4,.8c-6-.1-9.3-3.6-9.3-9.9" transform="translate(-0.3 -6.36)"/><path class="cls-1" d="M47.3,18.9V10.5a1,1,0,0,0-.8-.8h-.9V6.8h9.1V9.7H52.6v9.5c0,2.9,1.2,3.8,3.4,3.8s3.4-.9,3.4-3.8V9.7h-2V6.8H65V9.7h-.9a1,1,0,0,0-.8.8v8.4c0,4.9-2.5,7.5-7.9,7.5s-8.1-2.6-8.1-7.5" transform="translate(-0.3 -6.36)"/></svg>